<svg width="165" height="125" viewBox="0 0 165 125" fill="none" xmlns="http://www.w3.org/2000/svg">
<path d="M156.416 115.526V43.2072C156.416 39.0868 153.061 35.7203 148.955 35.7203H124.555V115.526H121.288V7.48691C121.288 3.37169 117.928 0 113.832 0H50.8214C46.7256 0 43.3657 3.37169 43.3657 7.48691V115.531H40.0983V35.7203H15.6987C11.5927 35.7203 8.23783 39.0868 8.23783 43.2072V115.526H0V124.045H164.654V115.526H156.416ZM134.388 56.9934C134.39 56.6803 134.514 56.3803 134.735 56.1588C134.956 55.9374 135.255 55.8124 135.567 55.811H145.41C145.722 55.8124 146.021 55.9374 146.242 56.1588C146.462 56.3803 146.587 56.6803 146.588 56.9934V72.8708C146.587 73.184 146.462 73.484 146.242 73.7054C146.021 73.9269 145.722 74.0519 145.41 74.0533H135.567C135.255 74.0519 134.956 73.9269 134.735 73.7054C134.514 73.484 134.39 73.184 134.388 72.8708V56.9934ZM134.388 87.349C134.39 87.0358 134.514 86.7358 134.735 86.5144C134.956 86.2929 135.255 86.1679 135.567 86.1666H145.41C145.722 86.1679 146.021 86.2929 146.242 86.5144C146.462 86.7358 146.587 87.0358 146.588 87.349V103.226C146.587 103.539 146.462 103.839 146.241 104.059C146.02 104.28 145.721 104.404 145.41 104.404H135.567C135.255 104.404 134.956 104.28 134.735 104.059C134.514 103.839 134.39 103.539 134.388 103.226V87.349ZM18.0656 56.9934C18.067 56.6803 18.1915 56.3803 18.4122 56.1588C18.6329 55.9374 18.9318 55.8124 19.2439 55.811H29.0871C29.3992 55.8124 29.6981 55.9374 29.9188 56.1588C30.1395 56.3803 30.2641 56.6803 30.2654 56.9934V72.8708C30.2641 73.184 30.1395 73.484 29.9188 73.7054C29.6981 73.9269 29.3992 74.0519 29.0871 74.0533H19.2439C18.9318 74.0519 18.6329 73.9269 18.4122 73.7054C18.1915 73.484 18.067 73.184 18.0656 72.8708V56.9934ZM18.0656 87.349C18.067 87.0358 18.1915 86.7358 18.4122 86.5144C18.6329 86.2929 18.9318 86.1679 19.2439 86.1666H29.0871C29.3992 86.1679 29.6981 86.2929 29.9188 86.5144C30.1395 86.7358 30.2641 87.0358 30.2654 87.349V103.226C30.2641 103.539 30.1393 103.839 29.9185 104.059C29.6977 104.28 29.3987 104.404 29.0871 104.404H19.2439C18.9323 104.404 18.6334 104.28 18.4125 104.059C18.1917 103.839 18.067 103.539 18.0656 103.226V87.349ZM66.4687 103.226C66.4673 103.539 66.3426 103.839 66.1217 104.059C65.9009 104.28 65.602 104.404 65.2904 104.404H55.4472C55.1355 104.404 54.8366 104.28 54.6158 104.059C54.395 103.839 54.2702 103.539 54.2689 103.226V87.349C54.2702 87.0358 54.3948 86.7358 54.6155 86.5144C54.8361 86.2929 55.1351 86.1679 55.4472 86.1666H65.2904C65.6025 86.1679 65.9014 86.2929 66.1221 86.5144C66.3427 86.7358 66.4673 87.0358 66.4687 87.349V103.226ZM66.4687 72.8708C66.4673 73.184 66.3427 73.484 66.1221 73.7054C65.9014 73.9269 65.6025 74.0519 65.2904 74.0533H55.4472C55.1351 74.0519 54.8361 73.9269 54.6155 73.7054C54.3948 73.484 54.2702 73.184 54.2689 72.8708V56.9934C54.2702 56.6803 54.3948 56.3803 54.6155 56.1588C54.8361 55.9374 55.1351 55.8124 55.4472 55.811H65.2904C65.6025 55.8124 65.9014 55.9374 66.1221 56.1588C66.3427 56.3803 66.4673 56.6803 66.4687 56.9934V72.8708ZM90.364 115.526H74.2897V87.7259C74.2897 86.8636 74.9844 86.1666 75.8436 86.1666H88.8101C89.6694 86.1666 90.364 86.8636 90.364 87.7259V115.526ZM76.2244 72.8708V56.9934C76.2258 56.6803 76.3503 56.3803 76.571 56.1588C76.7917 55.9374 77.0906 55.8124 77.4027 55.811H87.2511C87.5632 55.8124 87.8621 55.9374 88.0828 56.1588C88.3034 56.3803 88.428 56.6803 88.4294 56.9934V72.8708C88.428 73.184 88.3034 73.484 88.0828 73.7054C87.8621 73.9269 87.5632 74.0519 87.2511 74.0533H77.4027C77.0906 74.0519 76.7917 73.9269 76.571 73.7054C76.3503 73.484 76.2258 73.184 76.2244 72.8708ZM91.0947 33.056C90.5347 33.056 89.9976 33.2789 89.6011 33.6757C89.2047 34.0726 88.9813 34.611 88.9799 35.173V41.8905C88.9786 42.4529 88.7553 42.9919 88.359 43.3896C87.9627 43.7873 87.4256 44.0113 86.8652 44.0127H77.7886C77.2282 44.0113 76.691 43.7873 76.2947 43.3896C75.8984 42.9919 75.6752 42.4529 75.6738 41.8905V35.173C75.6725 34.611 75.4491 34.0726 75.0526 33.6757C74.6562 33.2789 74.119 33.056 73.5591 33.056H66.7465C66.1861 33.0546 65.649 32.8306 65.2527 32.4329C64.8563 32.0352 64.6331 31.4962 64.6317 30.9338V22.342C64.6317 22.0635 64.6865 21.7878 64.7928 21.5306C64.8992 21.2735 65.055 21.0398 65.2515 20.8432C65.4479 20.6465 65.6811 20.4907 65.9376 20.3846C66.1942 20.2786 66.469 20.2243 66.7465 20.225H73.5591C74.1195 20.2236 74.6566 19.9996 75.0529 19.6019C75.4492 19.2042 75.6725 18.6652 75.6738 18.1028V11.4524C75.6738 10.2855 76.6257 9.33024 77.7886 9.33024H86.8652C88.028 9.33024 88.9799 10.2855 88.9799 11.4524V18.1028C88.9799 19.2698 89.9267 20.225 91.0947 20.225H97.9072C98.1847 20.2243 98.4596 20.2786 98.7161 20.3846C98.9727 20.4907 99.2059 20.6465 99.4023 20.8432C99.5987 21.0398 99.7546 21.2735 99.8609 21.5306C99.9673 21.7878 100.022 22.0635 100.022 22.342V30.9338C100.021 31.4962 99.7974 32.0352 99.4011 32.4329C99.0048 32.8306 98.4677 33.0546 97.9072 33.056H91.0947ZM110.385 103.226C110.384 103.539 110.259 103.839 110.038 104.059C109.817 104.28 109.518 104.404 109.207 104.404H99.3634C99.0518 104.404 98.7529 104.28 98.532 104.059C98.3112 103.839 98.1865 103.539 98.1851 103.226V87.349C98.1865 87.0358 98.311 86.7358 98.5317 86.5144C98.7524 86.2929 99.0513 86.1679 99.3634 86.1666H109.207C109.519 86.1679 109.818 86.2929 110.038 86.5144C110.259 86.7358 110.384 87.0358 110.385 87.349V103.226ZM110.385 72.8708C110.384 73.184 110.259 73.484 110.038 73.7054C109.818 73.9269 109.519 74.0519 109.207 74.0533H99.3634C99.0513 74.0519 98.7524 73.9269 98.5317 73.7054C98.311 73.484 98.1865 73.184 98.1851 72.8708V56.9934C98.1865 56.6803 98.311 56.3803 98.5317 56.1588C98.7524 55.9374 99.0513 55.8124 99.3634 55.811H109.207C109.519 55.8124 109.818 55.9374 110.038 56.1588C110.259 56.3803 110.384 56.6803 110.385 56.9934V72.8708Z" fill="#00A2D8"/>
</svg>
