<svg width="157" height="172" viewBox="0 0 157 172" fill="none" xmlns="http://www.w3.org/2000/svg">
<path d="M124.615 72.8969V75.5877L111.846 80.4557V77.7721L124.615 72.8969ZM156.19 82.7342V85.4177L130.399 75.5877V72.8969L156.19 82.7342ZM106.062 16.745V24.962L80.2711 8.22423V0L106.062 16.745ZM74.4868 0V8.22423L48.6963 24.962V16.745L74.4868 0ZM42.912 54.9078V59.3924L31.5676 54.0976V49.613L42.912 54.9078ZM25.7833 49.613V54.0976L0 66.1338V61.6492L25.7833 49.613ZM0 72.5208V171.168H25.7833V60.4991L0 72.5208ZM11.2215 112.463H5.43721V106.676H11.2215V112.463ZM22.067 80.4701H16.2827V74.6835H22.067V80.4701ZM42.912 65.7794V171.168H31.5676V60.4846L42.912 65.7794ZM48.6963 31.8626V171.168H74.4724V15.1248L48.6963 31.8626ZM58.8187 42.4159H53.0345V36.6293H58.8187V42.4159ZM68.6881 119.812H62.9039V114.025H68.6881V119.812ZM68.6881 84.3689H62.9039V78.5823H68.6881V84.3689ZM80.2566 15.1248V171.168H106.047V31.8626L80.2566 15.1248ZM92.5482 103.175H86.7639V97.3888H92.5482V103.175ZM92.5482 44.5859H86.7639V38.7993H92.5482V44.5859ZM101.478 67.9927H95.6934V62.2061H101.478V67.9927ZM130.399 81.7794V171.168H156.175V91.6021L130.399 81.7794ZM142.09 103.175H136.306V97.3888H142.09V103.175ZM151.128 119.812H145.344V114.025H151.128V119.812ZM124.615 81.7794V171.168H111.846V86.6474L124.615 81.7794Z" fill="#00A2D8"/>
</svg>
