<svg width="52" height="45" viewBox="0 0 52 45" fill="none" xmlns="http://www.w3.org/2000/svg">
<path d="M17.9596 26.3793L13.4024 30.93L13.3842 30.9496C13.2058 31.1184 12.9953 31.2499 12.7651 31.3363C12.535 31.4227 12.2899 31.4622 12.0442 31.4526C11.7985 31.45 11.5558 31.3983 11.3303 31.3007C11.1049 31.203 10.9013 31.0613 10.7316 30.8839C10.5565 30.7117 10.4178 30.5063 10.3235 30.2798C10.2291 30.0533 10.1811 29.8102 10.1823 29.5649C10.1762 29.3196 10.2194 29.0755 10.3093 28.847C10.3992 28.6186 10.534 28.4104 10.7057 28.2348L15.2622 23.6862C15.4371 23.5062 15.647 23.3639 15.879 23.268C16.111 23.1721 16.3602 23.1247 16.6113 23.1287C17.1375 23.1287 17.5874 23.3145 17.9603 23.6855C18.3326 24.0571 18.5194 24.5063 18.5201 25.0324C18.5201 25.5577 18.3347 26.0069 17.9624 26.3793H17.9596ZM30.9275 37.6548C30.9292 37.2782 30.8168 36.91 30.6049 36.5985C30.3972 36.2844 30.0991 36.0403 29.7499 35.8985C29.4027 35.752 29.0193 35.7137 28.6499 35.7888C28.2794 35.8592 27.9388 36.0399 27.6731 36.3072L23.2306 40.7447C23.055 40.9167 22.9154 41.1219 22.82 41.3484C22.7246 41.5749 22.6753 41.818 22.675 42.0637C22.6677 42.3092 22.7093 42.5538 22.7976 42.7832C22.8859 43.0125 23.0191 43.222 23.1893 43.3994L23.2285 43.4364C23.6029 43.8067 24.0528 43.9911 24.579 43.9911C25.1059 43.9911 25.5558 43.806 25.9301 43.4364L30.3726 39.001C30.5528 38.8267 30.695 38.6172 30.7905 38.3856C30.8859 38.1539 30.9326 37.9052 30.9275 37.6548ZM26.753 33.4848C26.7585 33.2362 26.7128 32.9892 26.6188 32.759C26.5248 32.5287 26.3845 32.3202 26.2065 32.1463L26.1806 32.1204C26.0043 31.9452 25.7944 31.8072 25.5634 31.7148C25.3325 31.6224 25.0852 31.5774 24.8365 31.5825C24.5877 31.5802 24.341 31.6281 24.1111 31.7231C23.8812 31.8182 23.6729 31.9586 23.4986 32.1358L19.0561 36.5705C18.8777 36.7452 18.7366 36.954 18.6413 37.1845C18.5459 37.4151 18.4983 37.6625 18.5012 37.9119C18.4998 38.4351 18.6818 38.8829 19.0477 39.2574L18.9945 39.3272L19.0561 39.2658C19.4298 39.636 19.8797 39.8204 20.4059 39.8204C20.932 39.8204 21.382 39.6353 21.7556 39.2658L26.1981 34.8296C26.5704 34.4594 26.7551 34.0109 26.7537 33.4862L26.753 33.4848ZM22.675 29.2757V29.2107C22.6796 28.9693 22.6365 28.7294 22.5481 28.5046C22.4598 28.2799 22.3279 28.0747 22.1601 27.9009L22.123 27.8666C21.9552 27.6931 21.7547 27.5544 21.533 27.4585C21.3113 27.3626 21.0729 27.3113 20.8313 27.3077H20.7704C20.2824 27.2986 19.8108 27.4833 19.4591 27.8212L19.4221 27.8603L14.8823 32.4013C14.7039 32.5759 14.5628 32.7847 14.4674 33.0153C14.3721 33.2458 14.3244 33.4932 14.3274 33.7426C14.326 34.2658 14.5079 34.7136 14.8739 35.0881L14.8991 35.1126C15.2349 35.4507 15.6894 35.6449 16.1663 35.654L16.232 35.6505C16.4831 35.6557 16.7325 35.6092 16.9647 35.5139C17.197 35.4186 17.407 35.2765 17.5818 35.0965L22.1202 30.5556C22.4677 30.2197 22.6676 29.7599 22.6757 29.2771L22.675 29.2757ZM41.1098 4.40121C40.6289 4.73987 40.0898 4.98755 39.5193 5.13195C38.9277 5.27644 38.3237 5.36509 37.7155 5.39672C37.0857 5.42955 36.456 5.43165 35.8262 5.40091C34.9306 5.36179 33.9965 5.26957 33.0078 5.17177L32.9455 5.16548C29.5428 4.82736 25.6866 4.44522 23.4195 6.42297L18.884 10.9499C18.7107 11.1244 18.5741 11.3317 18.4822 11.5596C18.3904 11.7876 18.3453 12.0316 18.3494 12.2773C18.3501 12.7907 18.5299 13.2323 18.8882 13.6018C19.0568 13.7806 19.2596 13.9239 19.4846 14.0232C19.7095 14.1226 19.9521 14.176 20.198 14.1803C20.4438 14.1919 20.6894 14.1543 20.9203 14.0697C21.1513 13.9852 21.363 13.8553 21.5429 13.6878L26.1372 9.09723C26.233 8.99865 26.348 8.92071 26.475 8.8682C26.6021 8.8157 26.7386 8.78974 26.8761 8.79193C27.1644 8.79193 27.41 8.89393 27.6143 9.09723L27.6269 9.1112L44.6951 26.1488C45.6957 24.4798 46.7635 22.6914 47.909 20.7695C49.2475 18.52 50.4132 16.5548 51.3879 14.9012L41.6332 3.98204C41.4672 4.13195 41.2924 4.27192 41.1098 4.40121ZM26.8796 11.3055L22.9976 15.1765C22.6198 15.537 22.1887 15.8122 21.7031 16.0036C21.2224 16.1943 20.709 16.2893 20.1917 16.2831C19.6743 16.2786 19.1627 16.173 18.686 15.9722C18.2085 15.7733 17.7747 15.4831 17.409 15.1178L17.3901 15.0982C17.0229 14.7274 16.7327 14.2877 16.5364 13.8044C16.3381 13.3222 16.2373 12.8056 16.2397 12.2843C16.2404 11.7628 16.3443 11.2467 16.5455 10.7655C16.745 10.2835 17.0379 9.84572 17.4076 9.47727L21.5198 5.37297H21.5065C21.3428 5.38205 21.1783 5.39183 21.023 5.39881C20.3394 5.42885 19.8692 5.44422 19.4493 5.43724C19.0113 5.43863 18.5747 5.41348 18.1402 5.36109C17.2386 5.28196 16.3845 4.92255 15.6982 4.33344C14.9521 3.64312 14.3004 2.85765 13.7599 1.99731L12.7391 0.509981L12.3934 0L0 8.62637C1.57366 11.3174 3.23899 14.153 4.96799 17.0753C6.56195 19.7663 8.26646 22.625 10.176 25.8127L13.7865 22.21C14.1576 21.8396 14.5985 21.5464 15.0838 21.3473C15.5686 21.1462 16.0885 21.0431 16.6134 21.0441C17.1383 21.0431 17.6582 21.1462 18.143 21.3473C18.6328 21.5491 19.0652 21.8363 19.4402 22.21C19.7236 22.4951 19.9608 22.8143 20.1519 23.1678C20.4527 23.7309 20.6207 24.3317 20.6557 24.9688C21.9012 24.9632 22.9549 25.4089 23.817 26.3066C24.5155 27.0555 24.9118 28.036 24.9295 29.0591C25.9888 29.2522 26.9565 29.7841 27.6864 30.5744C28.0125 30.9391 28.2798 31.3523 28.4785 31.7991C28.6933 32.3412 28.8172 32.9036 28.85 33.4862C28.8486 33.5505 28.8431 33.6147 28.834 33.6783V33.6853H28.8424C28.9053 33.6762 28.9697 33.6713 29.0334 33.6699C30.1382 33.6657 31.08 34.0542 31.8602 34.8352L31.8805 34.8576C32.4498 35.4222 32.8289 36.1498 32.9651 36.9394C33.1126 37.7272 33.0106 38.5413 32.6733 39.2685C32.7944 39.3174 32.9014 39.3873 32.9945 39.4781C33.3688 39.8414 33.8173 40.0209 34.3393 40.0168C34.5884 40.0187 34.8352 39.9702 35.0649 39.8741C35.2947 39.778 35.5025 39.6364 35.6758 39.4579C35.8544 39.2847 35.996 39.0772 36.0919 38.8478C36.1879 38.6185 36.2363 38.3721 36.2342 38.1235C36.2397 37.875 36.1947 37.6279 36.1018 37.3972C36.009 37.1666 35.8702 36.9571 35.694 36.7815L27.7928 28.8971C27.6939 28.8015 27.6157 28.6868 27.563 28.5599C27.5103 28.433 27.4842 28.2967 27.4863 28.1593C27.4863 27.8708 27.5878 27.6249 27.7921 27.4209C27.8879 27.3223 28.003 27.2443 28.1302 27.1918C28.2574 27.1392 28.394 27.1133 28.5317 27.1156C28.82 27.1156 29.0663 27.2176 29.2706 27.4216L37.1676 35.3054C37.343 35.4843 37.5531 35.6256 37.785 35.7209C38.017 35.8161 38.2659 35.8632 38.5166 35.8594C39.0421 35.8594 39.492 35.6749 39.8657 35.3054L39.8951 35.2795C40.0676 35.1022 40.2029 34.8923 40.293 34.6621C40.3832 34.4319 40.4263 34.186 40.4199 33.9389C40.4208 33.6917 40.3723 33.4468 40.2771 33.2187C40.182 32.9905 40.0421 32.7836 39.8657 32.6102L31.9694 24.7306C31.8706 24.635 31.7924 24.5203 31.7397 24.3934C31.687 24.2665 31.6608 24.1302 31.6629 23.9929C31.6629 23.7043 31.7644 23.4584 31.968 23.2544C32.0636 23.1555 32.1785 23.0772 32.3056 23.0243C32.4326 22.9715 32.5692 22.9452 32.7069 22.9471C32.9952 22.9471 33.2422 23.0484 33.4465 23.2516L41.3421 31.1354C41.517 31.3155 41.7271 31.4576 41.9595 31.5529C42.1919 31.6483 42.4414 31.6947 42.6926 31.6894H42.78C43.6057 31.6475 44.1676 31.2409 44.4663 30.471C44.7644 29.7012 44.6224 29.0235 44.0395 28.4374L26.8796 11.3055ZM31.509 40.9522C31.4867 40.9297 31.4672 40.9046 31.4509 40.8774L28.7353 43.5887C28.7626 43.6048 28.7878 43.6236 28.8102 43.646C28.9824 43.8214 29.188 43.9608 29.4148 44.056C29.6416 44.1513 29.8852 44.2004 30.1312 44.2007C30.3772 44.2081 30.6222 44.1665 30.8519 44.0783C31.0816 43.9902 31.2914 43.8572 31.4691 43.6872L31.5076 43.6474C31.6889 43.4733 31.8323 43.2637 31.9286 43.0317C32.0249 42.7996 32.0722 42.5502 32.0673 42.2991V42.2118C32.0538 41.7544 31.8697 41.3187 31.551 40.9899L31.509 40.9522Z" fill="white"/>
</svg>
