<svg width="45" height="50" viewBox="0 0 45 50" fill="none" xmlns="http://www.w3.org/2000/svg">
<path d="M19.0827 15.0697C19.1923 15.284 19.2897 15.504 19.3745 15.7288C19.4618 15.9591 19.7147 16.2029 19.9541 16.2696L21.0362 16.5697C21.1941 16.6138 21.3455 16.7354 21.4414 16.8807V16.8827C21.4569 16.9064 21.4718 16.9331 21.485 16.9599C21.4885 16.9673 21.492 16.9761 21.4941 16.9836C21.5016 17.0028 21.5119 17.0231 21.517 17.0434C21.5266 17.0716 21.5332 17.1012 21.5372 17.1309C21.5657 17.3811 21.5828 17.6357 21.584 17.8933C21.5872 18.1654 21.5749 18.4374 21.5474 18.7082C21.524 18.9509 21.2976 19.2056 21.0575 19.2788L20.009 19.5942C19.7679 19.6658 19.5248 19.9169 19.4445 20.1484C19.3482 20.4398 19.2294 20.7237 19.0893 20.9978C19.0695 21.0374 19.0472 21.0784 19.0238 21.118C18.9857 21.1842 19.0547 21.4106 19.1776 21.6258L19.707 22.5533C19.8293 22.7674 19.8141 23.1041 19.6563 23.2963C19.4847 23.5076 19.3029 23.7138 19.1041 23.9096C18.921 24.0918 18.7287 24.265 18.528 24.4287C18.3357 24.5848 17.9925 24.6107 17.7697 24.4964L16.816 24.0054C16.5947 23.8902 16.2398 23.9006 16.0135 24.0108C15.7731 24.128 15.5259 24.2312 15.273 24.3199C15.0365 24.404 14.7863 24.6467 14.7173 24.882L14.4244 25.8848C14.3542 26.1192 14.098 26.3446 13.8488 26.3727C13.591 26.3994 13.3301 26.4152 13.0666 26.4183C12.7865 26.4209 12.5064 26.4089 12.2276 26.3822C11.9789 26.3589 11.716 26.1394 11.6434 25.905L11.3308 24.9196C11.2583 24.6877 10.9995 24.4479 10.7618 24.3703C10.5063 24.2869 10.2559 24.189 10.0121 24.0772C9.78432 23.9724 9.42999 23.9703 9.21079 24.0911L8.28397 24.5933C8.06308 24.7119 7.71953 24.6961 7.52307 24.5454C7.09711 24.2183 6.70696 23.8493 6.35887 23.4442C6.19788 23.2573 6.17202 22.9222 6.28974 22.7066L6.79739 21.7711C6.91459 21.5551 6.90654 21.2085 6.79427 20.9884C6.67753 20.7589 6.57466 20.523 6.4862 20.2819C6.40304 20.052 6.14967 19.8063 5.91059 19.7385L4.8706 19.4512C4.68999 19.4008 4.51133 19.2456 4.42454 19.0681C4.41999 19.0617 4.41843 19.0562 4.41635 19.0493C4.40516 19.0278 4.39569 19.0055 4.38803 18.9826C4.37894 18.9529 4.37177 18.9227 4.36659 18.8921C4.35905 18.8278 4.35489 18.7645 4.35034 18.6997C4.32906 18.4928 4.31653 18.2851 4.31279 18.0772C4.31072 17.8225 4.32069 17.5678 4.34268 17.314C4.36659 17.0692 4.59098 16.8155 4.83058 16.7427L5.89188 16.4244C6.13135 16.3537 6.37965 16.1015 6.46034 15.8696C6.55352 15.5982 6.66579 15.3334 6.79635 15.077C6.81909 15.0306 6.84651 14.9831 6.87301 14.9372C6.91615 14.8596 6.85365 14.6242 6.73087 14.4101L6.18514 13.4564C6.0634 13.2437 6.08172 12.906 6.23842 12.7167C6.40114 12.5167 6.57517 12.3257 6.75971 12.1446C6.95408 11.9487 7.16035 11.7645 7.37742 11.5927C7.56972 11.4362 7.91444 11.4124 8.13675 11.5261L9.13101 12.0388C9.35242 12.1531 9.7087 12.1456 9.93504 12.0379C10.1512 11.9354 10.3729 11.8441 10.599 11.7645C10.8339 11.6818 11.0842 11.4362 11.1537 11.2007L11.4658 10.1373C11.5339 9.90183 11.7896 9.6759 12.0393 9.64628C12.3173 9.61388 12.5969 9.59672 12.8769 9.59489C13.1413 9.59097 13.4026 9.60122 13.6584 9.624C13.9102 9.64426 14.1717 9.86437 14.2463 10.0987L14.5842 11.1657C14.6579 11.3996 14.9146 11.6388 15.1542 11.7179C15.3815 11.7936 15.6046 11.8808 15.8226 11.979C16.0505 12.0808 16.4069 12.0808 16.6261 11.9613L17.6225 11.4212C17.8433 11.3016 18.1869 11.3184 18.3832 11.4722C18.5875 11.6316 18.7835 11.8007 18.9705 11.979C19.1697 12.1703 19.3587 12.3713 19.537 12.5813C19.6963 12.7701 19.7222 13.1058 19.6034 13.3208L19.0786 14.2885C18.9609 14.5056 18.9705 14.8516 19.0827 15.0697ZM21.6541 15.3727C21.5765 15.3376 21.505 15.2909 21.4423 15.2342C21.4361 15.2283 21.43 15.2222 21.4241 15.216C21.4022 15.1937 21.3789 15.1715 21.3621 15.1468C21.356 15.1384 21.3495 15.131 21.3423 15.1221C21.3216 15.0907 21.3029 15.0579 21.2865 15.0241C21.1827 14.7717 21.0933 14.5139 21.0185 14.2519C20.9486 14.006 20.8908 13.757 20.8455 13.5058C20.8401 13.4772 20.8375 13.4483 20.8378 13.4193C20.8378 13.402 20.8399 13.3836 20.8434 13.3659C20.8434 13.355 20.8434 13.3456 20.8455 13.3337C20.8481 13.311 20.8525 13.2863 20.8622 13.2601C20.8622 13.2575 20.8637 13.2565 20.8637 13.2526C20.8693 13.2254 20.8799 13.1987 20.8916 13.1711C20.948 13.0301 21.0465 12.904 21.1658 12.8314L21.8544 12.4091C22.0656 12.2796 22.2543 11.976 22.3016 11.7352C22.3388 11.5302 22.3909 11.328 22.4574 11.1301C22.5351 10.8982 22.5203 10.5422 22.397 10.3295L22.0037 9.63983C21.8799 9.42718 21.9001 9.0905 22.0565 8.89975C22.2197 8.70077 22.3928 8.50967 22.5752 8.32713C22.7706 8.13274 22.9768 7.94889 23.1929 7.77641C23.3872 7.62009 23.732 7.59592 23.9552 7.71009L24.6602 8.07462C24.8836 8.18828 25.247 8.19562 25.484 8.11512C25.6853 8.04683 25.891 7.99115 26.0996 7.94843C26.3448 7.89754 26.6529 7.7092 26.7844 7.49947L27.198 6.81863C27.3279 6.60903 27.636 6.45727 27.8847 6.49334C28.1395 6.53283 28.3948 6.58131 28.6526 6.64611C28.923 6.71319 29.1894 6.79505 29.4505 6.89129C29.688 6.97685 29.8815 7.25582 29.8901 7.50137L29.921 8.31625C29.9301 8.55902 30.0672 8.84786 30.221 8.97038C30.3127 9.04428 30.4015 9.12146 30.4874 9.20175C30.5795 9.29116 30.6686 9.38352 30.7544 9.4787C30.8976 9.63793 31.2041 9.77982 31.4549 9.78323L32.3035 9.79513C32.475 9.79804 32.6623 9.88462 32.7928 10.0097C32.8133 10.0272 32.8317 10.0469 32.8476 10.0685C32.8598 10.0814 32.8684 10.0932 32.877 10.1061C32.8846 10.1165 32.8913 10.1254 32.8963 10.1357C32.9126 10.1595 32.9267 10.1842 32.9364 10.2099C33.0319 10.4474 33.1154 10.6893 33.1866 10.9348C33.2628 11.2007 33.3206 11.4668 33.3684 11.7332C33.4089 11.9736 33.2572 12.2762 33.045 12.4057L32.3055 12.8591C32.0944 12.9891 31.9014 13.2922 31.8513 13.5325C31.8167 13.697 31.7731 13.8628 31.7193 14.0265C31.6417 14.2594 31.6604 14.6143 31.7797 14.8283L32.2085 15.5779C32.3319 15.7915 32.3141 16.1282 32.1609 16.3206C31.9876 16.5344 31.8028 16.739 31.6071 16.9336C31.4238 17.116 31.2316 17.2896 31.031 17.4538C30.8382 17.61 30.4945 17.6357 30.2738 17.5196L29.485 17.1151C29.2638 17.0018 28.8998 16.992 28.6613 17.0711C28.4947 17.125 28.3257 17.1713 28.1548 17.21C27.9086 17.2635 27.6031 17.4562 27.4732 17.6658L27.0244 18.3991C26.8955 18.6088 26.5879 18.7625 26.3377 18.7264C26.0607 18.6894 25.7863 18.6363 25.516 18.5673C25.2631 18.505 25.0139 18.4295 24.7694 18.3412C24.5308 18.2567 24.338 17.9809 24.3277 17.7351L24.2963 16.9035C24.2866 16.6587 24.1359 16.3645 23.9704 16.231C23.8718 16.1494 23.7759 16.0649 23.6827 15.9775C23.598 15.8967 23.5167 15.8125 23.4391 15.7252C23.3071 15.5809 23.0091 15.4533 22.7608 15.4504L21.9225 15.4385C21.8352 15.4355 21.7419 15.4128 21.6539 15.3742V15.3727H21.6541ZM20.5698 0C12.1997 0.00202517 2.3517 3.10991 0.410224 13.3773C-1.9026 25.6197 6.31872 34.4997 6.31872 34.4997L6.69176 41.3692L29.5383 49.7537L30.4855 44.4288C30.4855 44.4288 35.0321 45.4958 39.2946 44.7496C42.721 44.1484 39.9554 39.2768 39.9554 39.2768L40.9512 36.4872L39.4001 34.9812L40.8833 33.6433V30.2638C40.8833 30.2638 42.3892 30.5081 44.2401 29.9421C46.9388 29.1149 40.3218 21.0171 40.2949 18.9656C40.1758 9.49806 35.0357 0.000126573 20.57 0.000126573" fill="white"/>
</svg>
