<svg width="146" height="139" viewBox="0 0 146 139" fill="none" xmlns="http://www.w3.org/2000/svg">
<path d="M73.169 6.92952L36.0589 36.7707L8.2921 59.3285H0L27.7668 36.7707L73.169 0L118.221 36.7707L145.988 59.3285H137.696L109.929 36.7707L73.169 6.92952ZM112.469 95.0082L112.819 95.362V95.7159L113.17 96.4531L113.52 97.5441L113.87 97.8979V98.2518H114.221V98.6056L114.571 98.9595L114.921 99.6967H115.272V100.051L116.002 100.404V100.758L116.352 101.112H116.703L117.053 101.849L117.783 102.203L118.133 102.557L118.484 102.911L120.294 103.648H120.995V138.974H127.593V103.766H128.674L130.104 102.675L130.455 102.321L131.885 101.584L133.316 99.7556L134.046 99.0184V98.6646L134.776 97.5736L135.126 97.2197V96.8659L135.477 96.512V96.1582L135.827 95.8043V95.0671L136.177 94.7133V93.9761H136.528V92.8851L136.878 92.1479V90.703L137.228 89.9658V86.6927L136.878 85.6017V83.744L136.528 83.0068V82.653L136.177 81.9158V81.562L135.827 81.2081V80.5004L135.477 80.1466V79.7927H135.185V79.4389L134.834 78.7017L134.484 77.9645L134.133 77.6107L133.783 76.8735L133.433 76.5196L133.082 76.1658L132.732 75.8119L132.002 75.0747L131.652 74.7209L131.301 74.367H130.951V74.0132H130.601L130.25 73.6594H129.9V73.3055L128.82 72.9517H128.469V72.5978H127.243L126.513 72.244H124.381C124.381 71.8901 124.031 71.8901 124.031 71.8901V72.244H121.462V72.5978H120.411L120.06 72.9517H119.71L119.359 73.3055H119.009V73.6594H118.659L118.308 74.0132H117.958L117.228 74.7504L115.797 76.1953L115.447 76.5491L115.097 76.903L114.746 77.6401L114.016 78.7312L113.666 79.085L112.936 80.9132L112.586 82.0043H112.119V83.0953L111.768 83.8325V84.9235L111.418 86.0145V91.0864L111.768 91.4402V92.8851L112.119 93.2389V93.9466L112.469 94.6838V95.0082ZM26.6865 103.766L27.7668 103.029L28.4968 102.675L28.8472 102.321C30.2778 101.23 31.3581 99.7851 32.0881 97.9569L32.4385 97.6031V96.8659L32.7888 96.512V73.6004L32.4385 73.2465V72.8927L32.0881 72.5388L31.0078 72.185H28.8472C28.4968 72.185 27.7668 72.9222 27.7668 73.276L27.4165 73.6299V74.3376L27.0661 75.0747V90.3492C27.0661 92.1774 27.0661 92.5312 25.6354 92.5312C24.2048 92.5312 24.5551 89.612 24.5551 87.8133V73.9837L24.2048 73.2465L23.8544 72.8927L23.504 72.5388H23.066V72.185H22.0149C22.0149 72.185 22.0149 71.8311 21.6646 72.185H20.5843L20.2339 72.5388L19.8835 72.8927H19.5331V73.2465L19.1828 73.6004V73.9542L18.8324 74.3081V90.3197C18.8324 92.1479 18.8324 92.5018 17.4017 92.5018C16.6718 92.5018 16.3214 91.4107 16.3214 90.6735V75.3696C16.3214 74.2786 16.3214 73.9247 15.971 72.8337L14.8907 72.4799L14.1608 72.126H12.263L11.533 72.4799L10.8031 73.217V73.5709L10.4527 74.3081V94.6838L10.8031 95.0377V96.8364L11.1535 97.1902V98.2518L11.5038 98.6056V98.9595H11.8542V99.3133L12.2046 99.6672V100.021L12.5549 100.375L12.9053 100.729V101.083H13.2557L13.9856 101.82H14.336V102.174H14.6864V102.527L18.2777 103.972V138.915H24.7595V104.12L26.6865 103.766ZM32.7888 129.597H114.951L114.6 128.506C114.25 123.788 113.17 119.394 111.359 115.03C109.199 110.666 106.688 106.656 103.418 103.383C99.8264 99.7556 95.8555 96.8364 91.5343 94.6543C87.213 92.4723 82.1618 91.3812 77.1107 91.0274C77.1107 91.0274 77.1107 90.6735 76.7603 90.6735V90.3197L77.1107 89.9658V88.8748L77.461 88.521C77.461 88.1671 77.1107 87.7838 77.1107 87.0761C76.7603 86.7222 76.7603 86.3389 76.3807 85.9851C76.0304 85.6312 75.6508 85.6312 75.3004 85.2479H72.4391C72.0887 85.6017 71.7091 85.6017 71.3588 85.9851C71.0084 86.3389 71.0084 86.7222 70.6288 87.0761V89.9658L70.9792 90.3197V90.6735C70.6288 90.6735 70.6288 91.0274 70.6288 91.0274C65.5776 91.3812 60.5265 92.4723 56.2052 94.6543C51.884 96.8364 47.9131 99.7556 44.3218 103.383C41.0809 106.656 38.5407 110.666 36.3801 115.03C34.5699 119.394 33.4896 123.758 33.1392 128.506L32.7888 129.597ZM107.768 125.233C107.418 123.788 107.038 122.697 106.688 121.222C106.337 120.131 105.958 119.04 105.257 117.949C104.527 116.121 103.447 114.322 102.367 112.494C101.286 111.049 100.206 109.575 98.7752 108.13L97.6949 107.039L96.6146 105.948C95.8847 105.211 95.8847 104.12 96.2643 103.412C96.9942 103.058 98.0745 102.675 98.7752 103.412L99.8555 104.503L100.936 105.594C102.367 107.422 103.826 108.867 105.257 110.695C106.337 112.524 107.418 114.322 108.148 116.534C108.878 117.625 109.228 119.07 109.958 120.544C110.308 121.635 110.688 123.08 111.038 124.554C111.038 125.292 110.308 126.383 109.608 126.383C108.848 126.678 107.768 125.97 107.768 125.233ZM90.1036 101.554C89.7532 101.201 89.0233 100.817 88.6729 100.817C87.943 100.08 87.5926 99.3723 87.943 98.6351C88.2933 97.5441 89.3736 97.1902 90.1036 97.5441C90.4539 97.8979 91.1839 98.2813 91.9138 98.6351C92.2642 98.989 92.9941 98.989 93.3445 99.3723C94.0744 100.109 94.4248 100.817 94.0744 101.908C93.3445 102.645 92.6438 102.645 91.5635 102.262C91.1839 101.938 90.8335 101.554 90.1036 101.554Z" fill="#00A2D8"/>
</svg>
