<svg width="29" height="29" viewBox="0 0 29 29" fill="none" xmlns="http://www.w3.org/2000/svg">
<path d="M13.5933 0.917495C13.4508 0.916496 13.3126 0.965811 13.2029 1.05675C13.0932 1.14769 13.0191 1.27443 12.9937 1.41462L12.6621 3.22913C12.3784 3.32128 12.1037 3.43223 11.8333 3.565L10.3438 2.49011C10.2279 2.40586 10.0858 2.36573 9.94296 2.37696C9.80014 2.38819 9.66602 2.45002 9.56474 2.55134L8.26919 3.82568C8.16811 3.92623 8.10562 4.05913 8.09265 4.2011C8.07968 4.34308 8.11706 4.4851 8.19825 4.60229L9.24525 6.11792C9.10856 6.38324 8.99301 6.65893 8.89969 6.94242L7.08275 7.23585C6.9411 7.25819 6.81204 7.33026 6.71872 7.43914C6.62539 7.54801 6.57391 7.68658 6.5735 7.82998L6.56198 9.64873C6.56098 9.79121 6.6103 9.92947 6.70124 10.0392C6.79218 10.1488 6.91891 10.2229 7.05911 10.2483L8.88029 10.5799C8.97062 10.8612 9.08399 11.134 9.21676 11.4014L8.1346 12.8982C7.96182 13.1371 7.98546 13.4687 8.1934 13.6797L9.4726 14.9728C9.57262 15.0739 9.70512 15.1365 9.84675 15.1495C9.98838 15.1624 10.13 15.125 10.2468 15.0438L11.7812 13.9877C12.0446 14.121 12.3178 14.2341 12.5984 14.326L12.9113 16.1635C12.961 16.4545 13.2095 16.6679 13.5054 16.6703L15.3223 16.68C15.4661 16.6809 15.6055 16.6307 15.7157 16.5383C15.8258 16.4459 15.8996 16.3174 15.9237 16.1756L16.2341 14.3405C16.5122 14.2509 16.783 14.14 17.0441 14.0089L18.567 15.0911C18.6833 15.1733 18.825 15.212 18.967 15.2002C19.109 15.1885 19.2423 15.1271 19.3436 15.0268L20.6391 13.7506C20.8495 13.5421 20.878 13.2111 20.7058 12.9667L19.6255 11.4511C19.7607 11.188 19.8741 10.9206 19.9662 10.646L21.811 10.3332C22.1002 10.2835 22.313 10.0325 22.3154 9.73664L22.3245 7.9197C22.3256 7.77608 22.2754 7.63678 22.1829 7.52687C22.0905 7.41696 21.9618 7.34365 21.8201 7.32012L19.9917 7.01033C19.9006 6.72962 19.7898 6.45571 19.66 6.19067L20.7355 4.67262C20.819 4.55698 20.8586 4.41542 20.8473 4.27325C20.836 4.13108 20.7744 3.99758 20.6737 3.89662L19.3951 2.60288C19.2937 2.50105 19.1595 2.43847 19.0163 2.42626C18.8731 2.41405 18.7302 2.453 18.6131 2.53619L17.1126 3.60319C16.8507 3.46933 16.5791 3.35524 16.3002 3.26187L16.0068 1.43827C15.984 1.29624 15.9115 1.16692 15.8022 1.07333C15.693 0.979742 15.5541 0.927957 15.4102 0.927195L13.5933 0.917495ZM14.0953 2.13242L14.8907 2.13727L15.1538 3.77597C15.1914 4.01484 15.369 4.20641 15.6012 4.26582C16.0511 4.38197 16.4813 4.56399 16.878 4.80599C17.0841 4.93391 17.3466 4.92421 17.543 4.78477L18.895 3.82568L19.4545 4.3895L18.4809 5.75357C18.3439 5.94999 18.3318 6.20825 18.4548 6.41438C18.6943 6.81875 18.8695 7.24979 18.9738 7.69296C19.0302 7.9294 19.2223 8.10946 19.4636 8.1525L21.1096 8.42956L21.1047 9.22254L19.4424 9.50202C19.206 9.54264 19.0138 9.72027 18.9544 9.95186C18.8417 10.3979 18.662 10.8243 18.4215 11.2165C18.3598 11.3182 18.3295 11.4357 18.3341 11.5545C18.3387 11.6732 18.3782 11.7881 18.4475 11.8846L19.4163 13.2511L18.8549 13.8076L17.4788 12.8316C17.3832 12.7635 17.2698 12.7247 17.1525 12.7201C17.0353 12.7155 16.9192 12.7451 16.8185 12.8055C16.4226 13.0404 15.9939 13.2153 15.5466 13.3244C15.4312 13.3521 15.3266 13.4131 15.2457 13.4999C15.1648 13.5867 15.1113 13.6954 15.0919 13.8125L14.8131 15.4651L14.0219 15.4578L13.7424 13.8003C13.7225 13.6838 13.6688 13.5758 13.5879 13.4896C13.5071 13.4033 13.4027 13.3428 13.2877 13.3153C12.8399 13.2021 12.4112 13.0231 12.0158 12.7843C11.9158 12.7237 11.8004 12.6934 11.6835 12.6972C11.5666 12.701 11.4533 12.7386 11.3574 12.8055L9.977 13.7573L9.41803 13.1917L10.3911 11.8464C10.4607 11.7502 10.5005 11.6356 10.5056 11.5169C10.5106 11.3983 10.4807 11.2807 10.4196 11.1789C10.1833 10.7799 10.007 10.3483 9.89636 9.8979C9.86834 9.78396 9.80811 9.68049 9.72285 9.59986C9.6376 9.51923 9.53094 9.46485 9.41561 9.44321L7.77691 9.14676L7.78418 8.35135L9.41561 8.08824C9.53276 8.0697 9.6419 8.01719 9.72951 7.93724C9.81712 7.85728 9.87935 7.75338 9.90849 7.6384C10.0221 7.18683 10.2032 6.75497 10.4456 6.35739C10.5072 6.25737 10.5382 6.14156 10.5348 6.02418C10.5315 5.9068 10.4939 5.79294 10.4268 5.69658L9.48715 4.33251L10.0504 3.77355L11.3902 4.73991C11.5848 4.88178 11.8449 4.8939 12.054 4.77265C12.4545 4.53354 12.8888 4.35633 13.3423 4.24703C13.4565 4.2203 13.5603 4.16079 13.6411 4.0758C13.7219 3.99082 13.7761 3.88407 13.797 3.7687L14.0953 2.13182V2.13242ZM14.436 5.78873C14.0368 5.7853 13.6409 5.86095 13.2711 6.01131C12.9013 6.16166 12.5649 6.38375 12.2814 6.66476C11.0925 7.83968 11.0828 9.77483 12.2571 10.9655C13.432 12.1544 15.369 12.1641 16.5579 10.9898C17.7467 9.81485 17.7564 7.87727 16.5821 6.68901C16.3012 6.40512 15.967 6.17946 15.5988 6.02498C15.2305 5.87049 14.8353 5.7902 14.436 5.78873ZM14.4311 6.99396C14.8979 6.99638 15.3623 7.17886 15.7194 7.5414C15.8892 7.71133 16.0236 7.91322 16.1149 8.13542C16.2062 8.35762 16.2525 8.59571 16.2513 8.83593C16.25 9.07615 16.2011 9.31372 16.1074 9.53492C16.0137 9.75612 15.8771 9.95656 15.7055 10.1246C15.5354 10.2947 15.3334 10.4294 15.1111 10.5209C14.8887 10.6124 14.6504 10.659 14.4099 10.6579C14.1695 10.6569 13.9316 10.6082 13.7101 10.5147C13.4885 10.4212 13.2877 10.2847 13.1192 10.1131C12.9493 9.9429 12.8149 9.74071 12.7236 9.51824C12.6324 9.29577 12.5861 9.05742 12.5874 8.81695C12.5888 8.57649 12.6377 8.33867 12.7315 8.11724C12.8253 7.89581 12.962 7.69515 13.1337 7.52685C13.3042 7.3569 13.5066 7.22233 13.7292 7.13087C13.9519 7.03942 14.1904 6.99289 14.4311 6.99396ZM8.03032 16.68C6.44801 16.68 5.71868 17.0589 4.93238 17.3621V17.3645C3.42402 17.952 0.842601 19.1687 0.842601 19.1687C0.539476 19.3112 0.409738 19.6737 0.551601 19.9768C0.695889 20.28 1.05843 20.4097 1.36155 20.2678C1.36155 20.2678 3.95934 19.0432 5.3707 18.4939C6.24249 18.1557 6.62139 17.8925 8.03032 17.8925C11.1398 17.8925 11.0143 19.2427 12.3262 20.0144C12.345 20.0265 12.3662 20.0387 12.3875 20.0447C14.0146 20.7753 15.7625 20.9238 17.1714 20.9238C17.794 20.9238 18.1875 21.0681 18.4003 21.2294C18.6112 21.393 18.687 21.561 18.687 21.8332C18.687 22.1527 18.6064 22.3042 18.396 22.4582C18.1875 22.6098 17.7849 22.7426 17.1714 22.7426H13.9886C12.653 22.7426 10.3535 22.1551 10.3535 22.1551C10.2757 22.1328 10.1942 22.1262 10.1138 22.1359C10.0334 22.1455 9.95581 22.1711 9.88547 22.2111C9.81512 22.2512 9.7535 22.3049 9.7042 22.3691C9.65491 22.4333 9.61894 22.5067 9.59842 22.585C9.57789 22.6633 9.57322 22.7449 9.58468 22.825C9.59615 22.9052 9.6235 22.9822 9.66516 23.0516C9.70681 23.121 9.76191 23.1814 9.82723 23.2292C9.89254 23.277 9.96675 23.3113 10.0455 23.33C10.0455 23.33 12.3262 23.9551 13.9886 23.9551H17.1714C17.7898 23.9551 18.3269 23.8532 18.7767 23.6307C18.8363 23.6143 18.8925 23.5876 18.9429 23.5519L24.6925 19.7798C25.5571 19.2803 26.1469 19.1408 26.4925 19.1451C26.8381 19.1523 26.9569 19.2566 27.0612 19.3894C27.2146 19.5882 27.2242 19.664 27.1248 19.8938C27.023 20.126 26.7271 20.4831 26.1942 20.8529H26.1918C25.5334 21.3124 18.1711 26.1103 17.3205 26.5935C16.6791 26.9578 16.1699 27.3416 15.5897 27.5047C15.0095 27.6659 14.325 27.6659 13.1932 27.1258C12.4372 26.7638 9.22161 25.1154 8.17946 24.5874C7.59928 24.294 7.10458 24.1278 6.60017 24.1563C6.09335 24.1848 5.66473 24.4 5.22156 24.6795C5.22027 24.6795 5.21904 24.68 5.21813 24.681C5.21722 24.6819 5.21671 24.6831 5.21671 24.6844L3.71563 25.6435C3.6227 25.6995 3.54644 25.7793 3.49475 25.8747C3.44305 25.9701 3.41779 26.0776 3.4216 26.1861C3.42511 26.2946 3.45777 26.4002 3.51615 26.4918C3.57453 26.5833 3.65648 26.6575 3.75339 26.7065C3.8503 26.7554 3.95862 26.7774 4.06696 26.7702C4.17531 26.7629 4.27969 26.7265 4.36917 26.665L5.86358 25.7071C6.24915 25.4658 6.46741 25.3785 6.66626 25.3664C6.86511 25.3543 7.13731 25.4186 7.63262 25.6695C8.66507 26.1927 11.8309 27.8175 12.6718 28.2176C13.991 28.8499 15.0592 28.9087 15.914 28.6723C16.7688 28.4334 17.3775 27.9551 17.9195 27.6471C19.0896 26.9815 26.0402 22.4346 26.886 21.8471C27.5274 21.3997 27.9984 20.9335 28.2379 20.3739C28.3565 20.092 28.3986 19.7838 28.3599 19.4805C28.3213 19.1771 28.2033 18.8893 28.0178 18.6461V18.6431C27.7171 18.2593 27.1842 17.9471 26.5143 17.9326C26.1324 17.9259 25.7086 18.0132 25.2376 18.186C25.1237 18.0336 24.9881 17.8988 24.835 17.7858C24.4822 17.5233 23.9208 17.2863 23.1581 17.2863C22.7671 17.2863 22.4476 17.376 22.1918 17.4827C21.8274 17.1347 21.1805 16.6922 20.2408 16.6922C19.4782 16.6922 18.7628 16.9474 18.2657 17.2414C18.1729 17.296 17.9504 17.4354 17.5715 17.6719C17.1926 17.9089 16.6979 18.2145 16.2099 18.5206C15.4308 19.0056 14.9477 19.3087 14.6682 19.484C14.074 19.3657 13.4799 19.1972 12.9179 18.9511C12.4396 18.6431 11.5187 16.68 8.03032 16.68ZM20.2402 17.9047C20.624 17.9047 20.8986 18.0017 21.0932 18.115L18.2893 19.8532C17.925 19.7546 17.5488 19.7069 17.1714 19.7113C16.9956 19.7113 16.8046 19.6992 16.6221 19.6925L16.8519 19.55C17.3393 19.2445 17.8322 18.9371 18.2135 18.7001C18.5924 18.4655 18.9022 18.2739 18.881 18.2854C19.1678 18.1156 19.7904 17.9047 20.2402 17.9047ZM23.1581 18.4988C23.651 18.4988 23.9159 18.6243 24.0772 18.7352C24.068 18.74 24.0592 18.7457 24.0511 18.7522L19.8619 21.4991C19.8063 21.1567 19.6616 20.835 19.4424 20.5661L22.3718 18.7498L22.3742 18.7449C22.3985 18.7328 22.9047 18.4988 23.1581 18.4988Z" fill="#FEFEFE"/>
</svg>
